<svg height="40" viewBox="0 0 80 40" width="80" xmlns="http://www.w3.org/2000/svg"><g fill="#467366"><path d="m25.3 20.7a20.1 20.1 0 0 0 -25.3 19.3h2a18 18 0 0 1 5.3-12.7l1.5-1.3v9.7l-4.3 4.3h2.9l16.4-16.4a17.9 17.9 0 0 1 -5.1 15l-1.5 1.4h3a20 20 0 0 0 5.1-19.3zm-14.5 13v-9.1a17 17 0 0 1 11.6-2.4z"/><path d="m65.3.7a20.4 20.4 0 0 0 -19.4 5.2 20.4 20.4 0 0 0 -5.2 19.4 20.4 20.4 0 0 0 19.4-5.2 20.4 20.4 0 0 0 5.2-19.4zm-14.5 3.9a18.2 18.2 0 0 1 11.6-2.4l-11.6 11.6zm-3.5 2.7 1.5-1.3v9.8l-6.6 6.6a18 18 0 0 1 5.1-15.1zm11.4 11.4a18 18 0 0 1 -15.1 5.1l20.2-20.2a18 18 0 0 1 -5.1 15.1z"/><path d="m17.2 0a18.3 18.3 0 0 1 -13.6 3.8l3.8-3.8h-2.8l-2.4 2.4a19.3 19.3 0 0 1 -.1-2.4h-2a23.9 23.9 0 0 0 .6 5.3 20.4 20.4 0 0 0 19.4-5.2h-2.9z"/></g></svg>